<svg width="447" height="188" viewBox="0 0 447 188" fill="none" xmlns="http://www.w3.org/2000/svg">
<path d="M368.41 68.795C372.744 68.795 376.259 65.2809 376.259 60.946C376.259 56.6111 372.744 53.097 368.41 53.097C364.075 53.097 360.561 56.6111 360.561 60.946C360.561 65.2809 364.075 68.795 368.41 68.795Z" fill="#363636"/>
<path fill-rule="evenodd" clip-rule="evenodd" d="M362.779 125.515C361.761 123.398 361.077 121.146 360.77 118.865C360.477 116.695 360.513 114.441 360.874 112.35C362.097 105.256 366.714 100.62 368.452 98.872C370.883 96.432 374.835 93.372 377.155 91.588C377.556 95.186 377.237 98.56 376.202 101.621C374.591 106.388 371.195 110.655 368.949 113.479C368.158 114.477 367.461 115.291 366.845 116.008C365.103 118.042 363.953 119.387 363.267 121.839C362.938 123.02 362.776 124.246 362.779 125.515Z" fill="#363636"/>
<path fill-rule="evenodd" clip-rule="evenodd" d="M358.681 107.317C357.273 102.185 358.093 96.081 361.028 90.501C364.375 84.136 369.887 79.074 374.84 74.962C376.111 73.907 377.423 72.849 378.694 71.827C382.901 68.436 387.252 64.929 390.957 60.831C394.142 57.307 397.931 52.04 399.461 45.716C400.815 52.299 399.577 59.906 395.929 66.758C392.406 73.37 386.783 79.558 378.236 86.231C377.264 86.989 376.263 87.749 375.297 88.485C372.102 90.913 368.8 93.422 365.905 96.338C362.401 99.863 359.981 103.546 358.681 107.317Z" fill="#363636"/>
<path fill-rule="evenodd" clip-rule="evenodd" d="M358.744 86.23C350.193 79.553 344.572 73.365 341.054 66.758C337.405 59.907 336.165 52.3 337.52 45.716C339.05 52.044 342.84 57.309 346.025 60.832C349.729 64.929 354.081 68.436 358.289 71.828C359.559 72.851 360.87 73.909 362.141 74.963C363.263 75.895 364.264 76.754 365.201 77.589C365.38 77.748 365.482 77.967 365.492 78.207C365.502 78.454 365.411 78.688 365.239 78.869C362.759 81.446 360.759 83.967 359.153 86.548C359.015 86.441 358.879 86.335 358.744 86.23Z" fill="#363636"/>
<path fill-rule="evenodd" clip-rule="evenodd" d="M326.799 132.133C328.041 131.795 329.299 131.447 330.538 131.091C336.162 129.474 342.681 127.308 348.387 123.505C351.661 121.32 354.468 118.672 356.591 115.774C356.923 119.757 358.022 123.679 359.806 127.218C360.669 128.932 361.708 130.583 362.9 132.133H326.799Z" fill="#363636"/>
<path fill-rule="evenodd" clip-rule="evenodd" d="M379.041 132.133C378.709 132.133 378.4 131.97 378.215 131.696C377.191 130.182 376.685 128.436 376.791 126.78C376.942 124.431 378.248 122.251 379.512 120.14C380.012 119.306 380.537 118.415 380.991 117.502C382.904 119.735 385.203 121.752 387.824 123.503C393.529 127.307 400.049 129.473 405.674 131.09C406.912 131.446 408.169 131.794 409.41 132.132L379.041 132.133Z" fill="#363636"/>
<path fill-rule="evenodd" clip-rule="evenodd" d="M370.506 132.079C368.754 132.079 367.236 130.952 366.729 129.275C365.693 125.837 367.107 122.368 368.042 120.608C369.318 118.211 371.146 116.051 372.914 113.963C373.193 113.633 373.474 113.301 373.752 112.971C375.22 111.217 376.85 109.189 378.063 106.867C378.733 109.643 378.591 112.578 377.639 115.257C377.154 116.624 376.443 117.98 375.753 119.292C374.525 121.627 373.256 124.042 373.064 126.798C372.945 128.54 373.277 130.345 374.03 132.079H370.506Z" fill="#363636"/>
<path fill-rule="evenodd" clip-rule="evenodd" d="M382.182 21.046C383.87 22.077 385.972 22.737 387.819 21.936C387.525 21.101 387.01 20.356 386.423 19.693C385.806 18.997 385.106 18.381 384.435 17.737C383.434 16.777 382.49 15.746 381.745 14.576C381.001 13.406 380.528 12.086 380.378 10.707C381.048 12.436 382.087 14.02 383.407 15.322C384.353 16.254 385.433 17.037 386.429 17.915C387.425 18.793 388.366 19.847 388.893 21.066C388.979 20.865 389.019 20.69 389.072 20.478C389.715 17.852 389.155 15.025 387.904 12.629C387.142 11.171 386.142 9.85701 385.006 8.66301C384.274 7.89501 383.487 7.17701 382.672 6.50101C381.572 5.58801 380.411 4.74 379.425 3.705C378.438 2.67 377.621 1.412 377.393 0C375.455 3.474 374.848 7.57501 375.631 11.476C376.414 15.376 378.789 18.973 382.182 21.046Z" fill="#4D7F1F"/>
<path fill-rule="evenodd" clip-rule="evenodd" d="M398.528 37.644C398.727 37.881 398.899 38.075 399.017 38.207C399.728 36.181 400.488 33.36 400.735 29.931C400.98 26.518 400.636 23.631 400.227 21.529C400.905 23.306 401.706 26.011 401.853 29.386C402.001 32.837 401.409 35.655 400.87 37.5C403.704 34.899 405.238 31.067 405.476 27.228C405.714 23.389 404.736 19.546 403.149 16.042C401.562 12.539 399.218 9.43901 396.942 6.33801C396.623 9.59501 394.739 12.458 393.608 15.528C392.125 19.557 391.885 23.031 392.872 27.187C394.113 32.433 397.534 36.471 398.528 37.644Z" fill="#4D7F1F"/>
<path fill-rule="evenodd" clip-rule="evenodd" d="M417.836 22.723C417.314 25.8 414.716 28.095 412.607 30.397C414.169 30.72 415.829 30.298 417.177 29.451C418.527 28.603 419.594 27.358 420.431 26.002C421.571 24.162 422.328 22.078 422.559 19.926C422.788 17.775 422.485 15.558 421.611 13.579C420.906 15.363 419.229 16.559 417.564 17.514C415.9 18.47 414.111 19.33 412.882 20.803C411.916 21.961 411.368 23.425 411.125 24.913C410.88 26.401 410.924 27.922 411.03 29.426C413.711 27.738 416.465 25.577 417.836 22.723Z" fill="#4D7F1F"/>
<path fill-rule="evenodd" clip-rule="evenodd" d="M409.666 47.389C413.062 49.285 417.295 49.519 420.949 48.185C424.601 46.851 427.642 44.014 429.401 40.545C431.16 37.077 431.657 33.018 430.984 29.189C428.912 31.294 426.01 32.342 423.169 33.141C420.326 33.941 417.381 34.579 414.846 36.095C411.579 38.046 409.212 41.44 408.506 45.178C413.882 44.86 419.119 42.552 422.981 38.798C419.421 42.786 414.766 45.789 409.666 47.389Z" fill="#4D7F1F"/>
<path fill-rule="evenodd" clip-rule="evenodd" d="M383.747 44.014C385.009 46.305 387.275 48.082 389.856 48.496C390.686 48.629 391.611 48.6 392.261 48.067C389.724 46.817 387.661 44.628 386.565 42.02C388.129 44.105 390.192 45.815 392.53 46.967C392.63 47.015 392.757 47.061 392.844 46.991C392.906 46.94 392.915 46.849 392.918 46.768C393.025 44.166 391.51 41.709 389.507 40.045C387.506 38.38 385.051 37.374 382.638 36.399C382.184 38.974 382.488 41.723 383.747 44.014Z" fill="#4D7F1F"/>
<path fill-rule="evenodd" clip-rule="evenodd" d="M424.09 68.765C430.311 64.643 434.279 57.494 435.035 50.07C431.292 52.537 426.801 53.553 422.397 54.403C417.995 55.253 413.493 56.007 409.501 58.047C405.509 60.088 402.028 63.692 401.389 68.13C408.766 67.826 416.05 65.499 422.237 61.469C416.919 66.358 409.86 68.954 402.776 70.372C409.453 73.701 417.871 72.887 424.09 68.765Z" fill="#4D7F1F"/>
<path fill-rule="evenodd" clip-rule="evenodd" d="M438.353 72.255C436.174 71.33 433.777 70.88 431.417 71.092C429.623 71.254 428.408 71.731 427.973 71.916C426.237 72.656 425.073 73.707 424.416 74.396C424.94 74.356 425.74 74.322 426.705 74.396C428.743 74.551 430.004 75.066 431.447 75.459C432.651 75.786 434.42 76.148 436.72 76.195C435.815 76.344 434.444 76.487 432.796 76.318C431.66 76.202 430.964 75.995 430.255 75.844C428.925 75.562 426.947 75.348 424.279 75.762C426.038 77.779 428.378 79.281 430.943 80.04C433.508 80.8 436.29 80.813 438.863 80.08C441.788 79.245 444.358 77.499 446.845 75.747C443.778 75.48 441.189 73.459 438.353 72.255Z" fill="#4D7F1F"/>
<path fill-rule="evenodd" clip-rule="evenodd" d="M429.722 89.501C425.22 89.313 421.133 86.923 417.358 84.465C413.582 82.006 409.755 79.347 405.329 78.497C400.031 77.479 394.264 79.38 390.608 83.348C394.557 83.029 398.415 84.532 401.994 86.234C405.571 87.937 409.111 89.891 413.013 90.578C408.915 90.511 405.027 88.896 401.153 87.555C397.281 86.213 393.097 85.117 389.119 86.106C389.895 87.697 393.769 95.229 402.535 98.114C409.448 100.39 415.221 98.399 419.976 96.758C419.976 96.758 424 95.368 428.775 90.981C429.33 90.469 430.268 89.524 429.722 89.501Z" fill="#4D7F1F"/>
<path fill-rule="evenodd" clip-rule="evenodd" d="M381.585 96.547C382.043 98.356 382.859 100.107 384.153 101.448C385.675 103.029 387.79 103.961 389.96 104.297C392.127 104.633 394.352 104.404 396.489 103.907C394.852 102.244 393.752 100.141 392.67 98.076C391.587 96.011 390.468 93.914 388.804 92.28C387.14 90.646 384.813 89.518 382.504 89.849C383.838 90.931 384.541 92.546 385.254 94.109C385.968 95.671 386.704 97.291 387.991 98.425C386.89 97.986 386 97.129 385.287 96.182C384.574 95.234 384.012 94.182 383.368 93.186C382.723 92.188 381.977 91.229 380.99 90.57C381.016 90.696 380.963 90.867 380.965 90.997C381.01 92.862 381.128 94.738 381.585 96.547Z" fill="#4D7F1F"/>
<path fill-rule="evenodd" clip-rule="evenodd" d="M392.082 103.476C391.401 103.476 390.736 103.426 390.107 103.329C388 103.003 386.134 102.094 384.859 100.768C383.799 99.668 382.995 98.126 382.535 96.307C382.257 95.209 382.113 94.085 382.035 92.981C382.223 93.235 382.391 93.486 382.543 93.72C382.764 94.061 382.977 94.412 383.188 94.761C383.592 95.429 384.011 96.119 384.503 96.773C385.443 98.023 386.494 98.886 387.628 99.339L388.64 97.691C387.516 96.702 386.826 95.192 386.16 93.732L386.065 93.524C385.671 92.662 385.272 91.785 384.757 90.975C385.931 91.295 387.104 91.988 388.115 92.982C389.707 94.545 390.818 96.665 391.8 98.533L391.818 98.567C392.656 100.166 393.516 101.804 394.641 103.269C393.747 103.406 392.899 103.476 392.082 103.476Z" fill="#4D7F1F"/>
<path fill-rule="evenodd" clip-rule="evenodd" d="M347.93 21.067C348.459 19.848 349.397 18.794 350.393 17.916C351.389 17.038 352.47 16.255 353.416 15.323C354.735 14.021 355.775 12.437 356.444 10.708C356.294 12.086 355.822 13.407 355.078 14.577C354.333 15.746 353.39 16.778 352.389 17.738C351.718 18.382 351.017 18.998 350.401 19.694C349.812 20.357 349.297 21.102 349.003 21.937C350.851 22.738 352.953 22.079 354.641 21.047C358.036 18.974 360.411 15.377 361.194 11.477C361.976 7.577 361.37 3.47501 359.431 0.00100708C359.202 1.41301 358.387 2.67101 357.401 3.70601C356.415 4.74101 355.253 5.58901 354.152 6.50201C353.338 7.17801 352.55 7.896 351.819 8.664C350.683 9.858 349.681 11.171 348.921 12.63C347.67 15.026 347.11 17.853 347.753 20.479C347.803 20.691 347.844 20.866 347.93 21.067Z" fill="#4D7F1F"/>
<path fill-rule="evenodd" clip-rule="evenodd" d="M335.955 37.501C335.416 35.655 334.822 32.837 334.972 29.387C335.118 26.012 335.918 23.307 336.598 21.53C336.188 23.632 335.844 26.519 336.09 29.932C336.336 33.361 337.096 36.182 337.807 38.208C337.926 38.076 338.096 37.882 338.296 37.645C339.289 36.472 342.711 32.434 343.953 27.19C344.937 23.034 344.699 19.56 343.216 15.531C342.086 12.46 340.202 9.597 339.882 6.341C337.606 9.442 335.262 12.542 333.674 16.045C332.087 19.549 331.11 23.392 331.348 27.231C331.586 31.068 333.12 34.9 335.955 37.501Z" fill="#4D7F1F"/>
<path fill-rule="evenodd" clip-rule="evenodd" d="M316.391 26.002C317.23 27.358 318.294 28.603 319.645 29.451C320.996 30.298 322.655 30.72 324.215 30.397C322.108 28.094 319.511 25.8 318.987 22.723C320.358 25.577 323.113 27.739 325.792 29.427C325.898 27.923 325.941 26.403 325.698 24.914C325.453 23.426 324.907 21.962 323.94 20.804C322.711 19.331 320.921 18.471 319.258 17.515C317.593 16.56 315.916 15.365 315.211 13.58C314.338 15.559 314.033 17.776 314.264 19.927C314.495 22.078 315.252 24.163 316.391 26.002Z" fill="#4D7F1F"/>
<path fill-rule="evenodd" clip-rule="evenodd" d="M315.876 48.185C319.528 49.519 323.763 49.286 327.158 47.389C322.056 45.789 317.404 42.786 313.844 38.797C317.706 42.551 322.943 44.859 328.319 45.177C327.613 41.438 325.246 38.045 321.978 36.094C319.443 34.579 316.499 33.94 313.656 33.14C310.813 32.341 307.913 31.293 305.842 29.188C305.167 33.018 305.665 37.076 307.423 40.544C309.181 44.014 312.223 46.851 315.876 48.185Z" fill="#4D7F1F"/>
<path fill-rule="evenodd" clip-rule="evenodd" d="M343.902 46.769C343.905 46.85 343.914 46.94 343.978 46.992C344.063 47.062 344.19 47.016 344.29 46.968C346.629 45.816 348.69 44.107 350.256 42.021C349.158 44.629 347.098 46.818 344.56 48.068C345.209 48.6 346.136 48.63 346.965 48.497C349.546 48.082 351.813 46.305 353.073 44.015C354.334 41.724 354.637 38.975 354.183 36.401C351.769 37.376 349.314 38.383 347.312 40.047C345.309 41.71 343.795 44.167 343.902 46.769Z" fill="#4D7F1F"/>
<path fill-rule="evenodd" clip-rule="evenodd" d="M312.733 68.765C318.953 72.887 327.37 73.702 334.047 70.372C326.963 68.954 319.904 66.358 314.586 61.469C320.773 65.498 328.057 67.826 335.433 68.13C334.796 63.692 331.314 60.088 327.322 58.047C323.33 56.007 318.828 55.253 314.426 54.403C310.024 53.554 305.531 52.537 301.787 50.07C302.544 57.493 306.513 64.643 312.733 68.765Z" fill="#4D7F1F"/>
<path fill-rule="evenodd" clip-rule="evenodd" d="M312.541 75.762C309.873 75.347 307.895 75.561 306.566 75.844C305.856 75.994 305.159 76.201 304.025 76.318C302.377 76.488 301.004 76.344 300.1 76.195C302.4 76.148 304.17 75.786 305.373 75.459C306.817 75.066 308.077 74.551 310.115 74.396C311.081 74.322 311.88 74.356 312.404 74.396C311.749 73.707 310.583 72.656 308.847 71.916C308.412 71.73 307.196 71.254 305.402 71.092C303.044 70.88 300.647 71.33 298.466 72.255C295.631 73.459 293.041 75.48 289.973 75.747C292.461 77.499 295.031 79.245 297.956 80.08C300.528 80.814 303.31 80.8 305.875 80.04C308.442 79.281 310.783 77.778 312.541 75.762Z" fill="#4D7F1F"/>
<path fill-rule="evenodd" clip-rule="evenodd" d="M334.29 98.114C343.056 95.229 346.93 87.697 347.705 86.106C343.726 85.117 339.544 86.212 335.672 87.555C331.798 88.896 327.91 90.511 323.812 90.578C327.714 89.89 331.254 87.936 334.832 86.234C338.41 84.532 342.268 83.029 346.217 83.348C342.561 79.38 336.795 77.479 331.496 78.497C327.07 79.347 323.244 82.006 319.467 84.465C315.691 86.923 311.606 89.313 307.103 89.501C306.556 89.524 307.494 90.469 308.051 90.981C312.824 95.368 316.849 96.758 316.849 96.758C321.603 98.399 327.377 100.391 334.29 98.114Z" fill="#4D7F1F"/>
<path fill-rule="evenodd" clip-rule="evenodd" d="M351.569 94.109C352.283 92.546 352.985 90.931 354.318 89.849C352.009 89.518 349.683 90.646 348.019 92.28C346.355 93.914 345.237 96.01 344.154 98.076C343.07 100.141 341.971 102.244 340.334 103.907C342.472 104.404 344.696 104.633 346.864 104.297C349.033 103.961 351.147 103.029 352.669 101.448C353.964 100.106 354.78 98.355 355.237 96.547C355.695 94.738 355.812 92.862 355.857 90.997C355.86 90.867 355.806 90.696 355.832 90.57C354.847 91.23 354.101 92.189 353.456 93.186C352.811 94.182 352.249 95.234 351.536 96.182C350.823 97.129 349.933 97.986 348.831 98.425C350.121 97.291 350.855 95.671 351.569 94.109Z" fill="#4D7F1F"/>
<path fill-rule="evenodd" clip-rule="evenodd" d="M369.186 39.635L368.461 27.03L367.646 39.646C359.332 30.248 364.087 24.2 368.411 13.581C372.734 24.195 377.488 30.243 369.186 39.635Z" fill="#4D7F1F"/>
<path fill-rule="evenodd" clip-rule="evenodd" d="M15.831 75.243V129.954H0V75.243H15.831ZM62.871 129.954H48.271V100.329C48.271 97.28 47.423 95.749 45.728 95.749C43.993 95.749 42.502 96.952 41.231 99.345C39.96 101.751 39.33 104.581 39.33 107.848V129.954H24.73V89.516C29.747 89.516 34.614 89.188 39.33 88.518V96.079C42.966 91.048 47.423 88.532 52.673 88.532C59.468 88.532 62.871 91.977 62.871 98.881V129.954ZM78.661 73.931C83.2 73.931 85.469 75.695 85.469 79.222C85.469 82.749 83.2 84.513 78.661 84.513C74.122 84.513 71.853 82.749 71.853 79.222C71.853 75.694 74.122 73.931 78.661 73.931ZM71.197 129.954V89.639C75.763 89.639 80.63 89.27 85.798 88.545V129.954H71.197ZM184.364 128.519C180.796 129.913 177.31 130.611 173.919 130.611C168.902 130.611 165.813 129.039 164.637 125.908C162.203 129.148 158.717 130.775 154.152 130.775C145.635 130.775 141.37 126.824 141.37 118.922C141.37 112.92 145.266 108.695 153.045 106.276C160.194 104.034 163.763 101.327 163.763 98.182C163.763 94.04 161.713 91.975 157.597 91.975C152.853 91.975 150.474 93.985 150.474 97.99C150.474 99.248 150.857 100.902 151.622 102.967L144.377 101.572C144.171 100.314 144.076 99.138 144.076 98.045C144.076 91.648 149.928 88.448 161.616 88.448C172.73 88.448 178.281 91.428 178.281 97.402V121.9C178.281 124.429 179.101 125.687 180.728 125.687C181.234 125.687 181.986 125.4 182.97 124.826L184.364 128.519ZM163.68 105.688C162.764 106.728 161.712 107.602 160.509 108.299C157.488 110.063 155.97 113.016 155.97 117.186C155.97 122.531 157.009 125.197 159.101 125.197C162.15 125.197 163.681 122.558 163.681 117.268V105.688H163.68ZM208.82 89.68H202.34V76.529C197.652 79.154 192.784 81.164 187.74 82.558V89.681H182.901V94.193H187.74V121.014C187.74 127.248 191.404 130.366 198.745 130.366C204.896 130.366 208.561 128.261 209.709 124.063L205.54 123.667C205.375 124.856 204.884 125.444 204.063 125.444C202.915 125.444 202.34 124.555 202.34 122.778V94.191H208.82V89.68ZM221.11 73.931C225.649 73.931 227.919 75.695 227.919 79.222C227.919 82.749 225.649 84.513 221.11 84.513C216.571 84.513 214.302 82.749 214.302 79.222C214.302 75.694 216.572 73.931 221.11 73.931ZM213.646 129.954V89.639C218.212 89.639 223.079 89.27 228.246 88.545V129.954H213.646ZM269.341 89.598L255.766 129.954H245.595L231.582 89.598H247.153L255.724 116.625L264.542 89.598H269.341ZM301.385 115.135L307.277 116.871C306.663 126.194 301.153 130.856 290.763 130.856C277.297 130.856 270.557 124.143 270.557 110.718C270.557 104.197 272.349 98.865 275.93 94.697C279.512 90.527 284.092 88.449 289.683 88.449C301.358 88.449 307.196 95.968 307.196 111.006H285.883C285.883 121.614 288.575 126.919 293.948 126.919C298.965 126.919 301.48 123.911 301.48 117.91C301.48 117.104 301.453 116.188 301.385 115.135ZM285.842 106.495H294.577C294.577 97.089 293.168 92.386 290.339 92.386C287.769 92.386 286.333 95.872 286.005 102.844L285.842 106.495ZM115.887 89.68V94.192H109.407V122.777C109.407 124.554 109.981 125.443 111.13 125.443C111.95 125.443 112.442 124.855 112.606 123.666L116.775 124.062C115.627 128.259 111.962 130.365 105.811 130.365C98.47 130.365 94.806 127.248 94.806 121.013V94.191H89.967V89.679H94.806V82.556C99.851 81.162 104.718 79.152 109.407 76.527V89.678H115.887V89.68ZM128.177 73.931C132.716 73.931 134.985 75.695 134.985 79.222C134.985 82.749 132.716 84.513 128.177 84.513C123.638 84.513 121.369 82.749 121.369 79.222C121.369 75.694 123.638 73.931 128.177 73.931ZM120.713 129.954V89.639C125.278 89.639 130.145 89.27 135.313 88.545V129.954H120.713Z" fill="#363636"/>
<path fill-rule="evenodd" clip-rule="evenodd" d="M186.637 157.198H209.194V186.727H204.15L202.428 182.967C198.026 186.071 193.364 187.628 188.443 187.628C180.337 187.628 174.047 185.209 169.564 180.356C165.094 175.517 162.852 168.681 162.852 159.877C162.852 151.305 165.231 144.36 169.975 139.07C174.719 133.765 180.926 131.113 188.594 131.113C198.697 131.113 204.849 136.281 207.036 146.616L199.599 150.007V148.681L199.475 145.728C198.97 139.262 195.976 136.036 190.521 136.036C186.501 136.036 183.753 137.745 182.291 141.162C180.815 144.58 180.077 150.951 180.077 160.274C180.077 168.982 180.679 174.901 181.868 178.018C183.057 181.149 185.326 182.707 188.689 182.707C192.627 182.707 194.595 180.519 194.595 176.144V162.693H186.639V157.198H186.637ZM245.216 171.908L251.108 173.644C250.494 182.967 244.984 187.628 234.594 187.628C221.128 187.628 214.388 180.916 214.388 167.491C214.388 160.97 216.179 155.638 219.761 151.47C223.343 147.3 227.923 145.222 233.513 145.222C245.188 145.222 251.026 152.741 251.026 167.779H229.713C229.713 178.387 232.406 183.692 237.779 183.692C242.797 183.692 245.311 180.684 245.311 174.683C245.311 173.876 245.284 172.961 245.216 171.908ZM229.672 163.269H238.408C238.408 153.863 236.999 149.161 234.17 149.161C231.601 149.161 230.164 152.646 229.836 159.619L229.672 163.269ZM295.47 186.728H280.869V157.103C280.869 154.054 280.021 152.523 278.326 152.523C276.591 152.523 275.1 153.726 273.829 156.119C272.557 158.525 271.929 161.355 271.929 164.622V186.728H257.328V146.29C262.345 146.29 267.212 145.962 271.929 145.292V152.852C275.565 147.822 280.022 145.306 285.272 145.306C292.066 145.306 295.47 148.751 295.47 155.655V186.728ZM377.425 146.371L363.851 186.727H353.68L339.667 146.371H355.238L363.809 173.398L372.626 146.371H377.425ZM409.47 171.908L415.362 173.644C414.747 182.967 409.238 187.628 398.847 187.628C385.382 187.628 378.642 180.916 378.642 167.491C378.642 160.97 380.433 155.638 384.015 151.47C387.596 147.3 392.176 145.222 397.768 145.222C409.443 145.222 415.28 152.741 415.28 167.779H393.967C393.967 178.387 396.66 183.692 402.032 183.692C407.05 183.692 409.565 180.684 409.565 174.683C409.565 173.876 409.538 172.961 409.47 171.908ZM393.926 163.269H402.661C402.661 153.863 401.253 149.161 398.423 149.161C395.854 149.161 394.418 152.646 394.09 159.619L393.926 163.269ZM332.572 171.908L338.464 173.644C337.849 182.967 332.339 187.628 321.949 187.628C308.484 187.628 301.744 180.916 301.744 167.491C301.744 160.97 303.535 155.638 307.116 151.47C310.698 147.3 315.278 145.222 320.87 145.222C332.545 145.222 338.382 152.741 338.382 167.779H317.069C317.069 178.387 319.762 183.692 325.134 183.692C330.152 183.692 332.667 180.684 332.667 174.683C332.668 173.876 332.641 172.961 332.572 171.908ZM317.028 163.269H325.763C325.763 153.863 324.355 149.161 321.525 149.161C318.956 149.161 317.52 152.646 317.192 159.619L317.028 163.269ZM323.029 141.613L309.331 131.032H320.788L326.516 141.613H323.029Z" fill="#363636"/>
</svg>
