<svg width="158" height="133" viewBox="0 0 158 133" fill="none" xmlns="http://www.w3.org/2000/svg">
<path d="M79.4095 68.795C83.7444 68.795 87.2585 65.2809 87.2585 60.946C87.2585 56.6111 83.7444 53.097 79.4095 53.097C75.0747 53.097 71.5605 56.6111 71.5605 60.946C71.5605 65.2809 75.0747 68.795 79.4095 68.795Z" fill="#363636"/>
<path fill-rule="evenodd" clip-rule="evenodd" d="M73.7793 125.515C72.7613 123.398 72.0773 121.146 71.7703 118.865C71.4773 116.695 71.5133 114.441 71.8743 112.35C73.0973 105.256 77.7143 100.62 79.4523 98.872C81.8833 96.432 85.8353 93.372 88.1553 91.588C88.5563 95.186 88.2373 98.56 87.2023 101.621C85.5913 106.388 82.1953 110.655 79.9493 113.479C79.1583 114.477 78.4613 115.291 77.8453 116.008C76.1033 118.042 74.9533 119.387 74.2673 121.839C73.9383 123.02 73.7763 124.246 73.7793 125.515Z" fill="#363636"/>
<path fill-rule="evenodd" clip-rule="evenodd" d="M69.6807 107.317C68.2727 102.185 69.0928 96.081 72.0278 90.501C75.3748 84.136 80.8867 79.074 85.8397 74.962C87.1107 73.907 88.4227 72.849 89.6937 71.827C93.9007 68.436 98.2517 64.929 101.957 60.831C105.142 57.307 108.931 52.04 110.461 45.716C111.815 52.299 110.577 59.906 106.929 66.758C103.406 73.37 97.7828 79.558 89.2358 86.231C88.2638 86.989 87.2627 87.749 86.2967 88.485C83.1017 90.913 79.7997 93.422 76.9047 96.338C73.4007 99.863 70.9807 103.546 69.6807 107.317Z" fill="#363636"/>
<path fill-rule="evenodd" clip-rule="evenodd" d="M69.7445 86.23C61.1935 79.553 55.5715 73.365 52.0535 66.758C48.4045 59.907 47.1655 52.3 48.5205 45.716C50.0505 52.044 53.8395 57.309 57.0245 60.832C60.7285 64.929 65.0805 68.436 69.2885 71.828C70.5585 72.851 71.8705 73.909 73.1415 74.963C74.2635 75.895 75.2645 76.754 76.2015 77.589C76.3805 77.748 76.4825 77.967 76.4925 78.207C76.5025 78.454 76.4105 78.688 76.2385 78.869C73.7585 81.446 71.7595 83.967 70.1535 86.548C70.0155 86.441 69.8795 86.335 69.7445 86.23Z" fill="#363636"/>
<path fill-rule="evenodd" clip-rule="evenodd" d="M37.7988 132.133C39.0408 131.795 40.2988 131.447 41.5378 131.091C47.1618 129.474 53.6808 127.308 59.3868 123.505C62.6608 121.32 65.4678 118.672 67.5908 115.774C67.9228 119.757 69.0218 123.679 70.8058 127.218C71.6688 128.932 72.7078 130.583 73.8998 132.133H37.7988Z" fill="#363636"/>
<path fill-rule="evenodd" clip-rule="evenodd" d="M90.0412 132.133C89.7092 132.133 89.4002 131.97 89.2152 131.696C88.1912 130.182 87.6852 128.436 87.7912 126.78C87.9422 124.431 89.2482 122.251 90.5122 120.14C91.0122 119.306 91.5372 118.415 91.9912 117.502C93.9042 119.735 96.2032 121.752 98.8242 123.503C104.529 127.307 111.049 129.473 116.674 131.09C117.912 131.446 119.169 131.794 120.41 132.132L90.0412 132.133Z" fill="#363636"/>
<path fill-rule="evenodd" clip-rule="evenodd" d="M81.5056 132.079C79.7536 132.079 78.2356 130.952 77.7286 129.275C76.6926 125.837 78.1066 122.368 79.0416 120.608C80.3176 118.211 82.1456 116.051 83.9136 113.963C84.1926 113.633 84.4737 113.301 84.7517 112.971C86.2197 111.217 87.8496 109.189 89.0626 106.867C89.7326 109.643 89.5906 112.578 88.6386 115.257C88.1536 116.624 87.4426 117.98 86.7526 119.292C85.5246 121.627 84.2556 124.042 84.0636 126.798C83.9446 128.54 84.2766 130.345 85.0296 132.079H81.5056Z" fill="#363636"/>
<path fill-rule="evenodd" clip-rule="evenodd" d="M93.1819 21.046C94.8699 22.077 96.972 22.737 98.819 21.936C98.525 21.101 98.01 20.356 97.423 19.693C96.806 18.997 96.1059 18.381 95.4349 17.737C94.4339 16.777 93.4899 15.746 92.7449 14.576C92.0009 13.406 91.5279 12.086 91.3779 10.707C92.0479 12.436 93.087 14.02 94.407 15.322C95.353 16.254 96.4329 17.037 97.4289 17.915C98.4249 18.793 99.3659 19.847 99.8929 21.066C99.9789 20.865 100.019 20.69 100.072 20.478C100.715 17.852 100.155 15.025 98.9039 12.629C98.1419 11.171 97.142 9.85701 96.006 8.66301C95.274 7.89501 94.4869 7.17701 93.6719 6.50101C92.5719 5.58801 91.411 4.74 90.425 3.705C89.438 2.67 88.6209 1.412 88.3929 0C86.4549 3.474 85.848 7.57501 86.631 11.476C87.414 15.376 89.7889 18.973 93.1819 21.046Z" fill="#4D7F1F"/>
<path fill-rule="evenodd" clip-rule="evenodd" d="M109.528 37.644C109.727 37.881 109.899 38.075 110.017 38.207C110.728 36.181 111.488 33.36 111.735 29.931C111.98 26.518 111.636 23.631 111.227 21.529C111.905 23.306 112.706 26.011 112.853 29.386C113.001 32.837 112.409 35.655 111.87 37.5C114.704 34.899 116.238 31.067 116.476 27.228C116.714 23.389 115.736 19.546 114.149 16.042C112.562 12.539 110.218 9.43901 107.942 6.33801C107.623 9.59501 105.739 12.458 104.608 15.528C103.125 19.557 102.885 23.031 103.872 27.187C105.113 32.433 108.534 36.471 109.528 37.644Z" fill="#4D7F1F"/>
<path fill-rule="evenodd" clip-rule="evenodd" d="M128.836 22.723C128.314 25.8 125.716 28.095 123.607 30.397C125.169 30.72 126.829 30.298 128.177 29.451C129.527 28.603 130.594 27.358 131.431 26.002C132.571 24.162 133.328 22.078 133.559 19.926C133.788 17.775 133.485 15.558 132.611 13.579C131.906 15.363 130.229 16.559 128.564 17.514C126.9 18.47 125.111 19.33 123.882 20.803C122.916 21.961 122.368 23.425 122.125 24.913C121.88 26.401 121.924 27.922 122.03 29.426C124.711 27.738 127.465 25.577 128.836 22.723Z" fill="#4D7F1F"/>
<path fill-rule="evenodd" clip-rule="evenodd" d="M120.666 47.389C124.062 49.285 128.295 49.519 131.949 48.185C135.601 46.851 138.642 44.014 140.401 40.545C142.16 37.077 142.657 33.018 141.984 29.189C139.912 31.294 137.01 32.342 134.169 33.141C131.326 33.941 128.381 34.579 125.846 36.095C122.579 38.046 120.212 41.44 119.506 45.178C124.882 44.86 130.119 42.552 133.981 38.798C130.421 42.786 125.766 45.789 120.666 47.389Z" fill="#4D7F1F"/>
<path fill-rule="evenodd" clip-rule="evenodd" d="M94.7474 44.014C96.0094 46.305 98.2753 48.082 100.856 48.496C101.686 48.629 102.611 48.6 103.261 48.067C100.724 46.817 98.6614 44.628 97.5654 42.02C99.1294 44.105 101.192 45.815 103.53 46.967C103.63 47.015 103.757 47.061 103.844 46.991C103.906 46.94 103.915 46.849 103.918 46.768C104.025 44.166 102.51 41.709 100.507 40.045C98.5063 38.38 96.0514 37.374 93.6384 36.399C93.1844 38.974 93.4884 41.723 94.7474 44.014Z" fill="#4D7F1F"/>
<path fill-rule="evenodd" clip-rule="evenodd" d="M135.09 68.765C141.311 64.643 145.279 57.494 146.035 50.07C142.292 52.537 137.801 53.553 133.397 54.403C128.995 55.253 124.493 56.007 120.501 58.047C116.509 60.088 113.028 63.692 112.389 68.13C119.766 67.826 127.05 65.499 133.237 61.469C127.919 66.358 120.86 68.954 113.776 70.372C120.453 73.701 128.871 72.887 135.09 68.765Z" fill="#4D7F1F"/>
<path fill-rule="evenodd" clip-rule="evenodd" d="M149.353 72.255C147.174 71.33 144.777 70.88 142.417 71.092C140.623 71.254 139.408 71.731 138.973 71.916C137.237 72.656 136.073 73.707 135.416 74.396C135.94 74.356 136.74 74.322 137.705 74.396C139.743 74.551 141.004 75.066 142.447 75.459C143.651 75.786 145.42 76.148 147.72 76.195C146.815 76.344 145.444 76.487 143.796 76.318C142.66 76.202 141.964 75.995 141.255 75.844C139.925 75.562 137.947 75.348 135.279 75.762C137.038 77.779 139.378 79.281 141.943 80.04C144.508 80.8 147.29 80.813 149.863 80.08C152.788 79.245 155.358 77.499 157.845 75.747C154.778 75.48 152.189 73.459 149.353 72.255Z" fill="#4D7F1F"/>
<path fill-rule="evenodd" clip-rule="evenodd" d="M140.722 89.501C136.22 89.313 132.133 86.923 128.358 84.465C124.582 82.006 120.755 79.347 116.329 78.497C111.031 77.479 105.264 79.38 101.608 83.348C105.557 83.029 109.415 84.532 112.994 86.234C116.571 87.937 120.111 89.891 124.013 90.578C119.915 90.511 116.027 88.896 112.153 87.555C108.281 86.213 104.097 85.117 100.119 86.106C100.895 87.697 104.769 95.229 113.535 98.114C120.448 100.39 126.221 98.399 130.976 96.758C130.976 96.758 135 95.368 139.775 90.981C140.33 90.469 141.268 89.524 140.722 89.501Z" fill="#4D7F1F"/>
<path fill-rule="evenodd" clip-rule="evenodd" d="M92.585 96.547C93.043 98.356 93.8589 100.107 95.1529 101.448C96.6749 103.029 98.79 103.961 100.96 104.297C103.127 104.633 105.352 104.404 107.489 103.907C105.852 102.244 104.752 100.141 103.67 98.076C102.587 96.011 101.468 93.914 99.8039 92.28C98.1399 90.646 95.8129 89.518 93.5039 89.849C94.8379 90.931 95.5409 92.546 96.2539 94.109C96.9679 95.671 97.7039 97.291 98.9909 98.425C97.8899 97.986 96.9999 97.129 96.2869 96.182C95.5739 95.234 95.0119 94.182 94.3679 93.186C93.7229 92.188 92.9769 91.229 91.9899 90.57C92.0159 90.696 91.9629 90.867 91.9649 90.997C92.0099 92.862 92.128 94.738 92.585 96.547Z" fill="#4D7F1F"/>
<path fill-rule="evenodd" clip-rule="evenodd" d="M103.082 103.476C102.401 103.476 101.736 103.426 101.107 103.329C99.0001 103.003 97.1341 102.094 95.8591 100.768C94.7991 99.668 93.9952 98.126 93.5352 96.307C93.2572 95.209 93.1132 94.085 93.0352 92.981C93.2232 93.235 93.3912 93.486 93.5432 93.72C93.7642 94.061 93.9771 94.412 94.1881 94.761C94.5921 95.429 95.0111 96.119 95.5031 96.773C96.4431 98.023 97.4941 98.886 98.6281 99.339L99.6401 97.691C98.5161 96.702 97.8262 95.192 97.1602 93.732L97.0651 93.524C96.6711 92.662 96.2721 91.785 95.7571 90.975C96.9311 91.295 98.1041 91.988 99.1151 92.982C100.707 94.545 101.818 96.665 102.8 98.533L102.818 98.567C103.656 100.166 104.516 101.804 105.641 103.269C104.747 103.406 103.899 103.476 103.082 103.476Z" fill="#4D7F1F"/>
<path fill-rule="evenodd" clip-rule="evenodd" d="M58.9298 21.067C59.4588 19.848 60.3969 18.794 61.3929 17.916C62.3889 17.038 63.4699 16.255 64.4159 15.323C65.7349 14.021 66.7749 12.437 67.4439 10.708C67.2939 12.086 66.8219 13.407 66.0779 14.577C65.3329 15.746 64.3899 16.778 63.3889 17.738C62.7179 18.382 62.0169 18.998 61.4009 19.694C60.8119 20.357 60.2968 21.102 60.0028 21.937C61.8508 22.738 63.9528 22.079 65.6408 21.047C69.0358 18.974 71.4109 15.377 72.1939 11.477C72.9759 7.577 72.3699 3.47501 70.4309 0.00100708C70.2019 1.41301 69.3869 2.67101 68.4009 3.70601C67.4149 4.74101 66.2529 5.58901 65.1519 6.50201C64.3379 7.17801 63.5499 7.896 62.8189 8.664C61.6829 9.858 60.6809 11.171 59.9209 12.63C58.6699 15.026 58.1098 17.853 58.7528 20.479C58.8028 20.691 58.8438 20.866 58.9298 21.067Z" fill="#4D7F1F"/>
<path fill-rule="evenodd" clip-rule="evenodd" d="M46.9551 37.501C46.4161 35.655 45.822 32.837 45.972 29.387C46.118 26.012 46.9181 23.307 47.5981 21.53C47.1881 23.632 46.844 26.519 47.09 29.932C47.336 33.361 48.096 36.182 48.807 38.208C48.926 38.076 49.0961 37.882 49.2961 37.645C50.2891 36.472 53.711 32.434 54.953 27.19C55.937 23.034 55.699 19.56 54.216 15.531C53.086 12.46 51.2021 9.597 50.8821 6.341C48.6061 9.442 46.262 12.542 44.674 16.045C43.087 19.549 42.1101 23.392 42.3481 27.231C42.5861 31.068 44.1201 34.9 46.9551 37.501Z" fill="#4D7F1F"/>
<path fill-rule="evenodd" clip-rule="evenodd" d="M27.3908 26.002C28.2298 27.358 29.2938 28.603 30.6448 29.451C31.9958 30.298 33.6548 30.72 35.2148 30.397C33.1078 28.094 30.5108 25.8 29.9868 22.723C31.3578 25.577 34.1128 27.739 36.7918 29.427C36.8978 27.923 36.9408 26.403 36.6978 24.914C36.4528 23.426 35.9068 21.962 34.9398 20.804C33.7108 19.331 31.9208 18.471 30.2578 17.515C28.5928 16.56 26.9158 15.365 26.2108 13.58C25.3378 15.559 25.0328 17.776 25.2638 19.927C25.4948 22.078 26.2518 24.163 27.3908 26.002Z" fill="#4D7F1F"/>
<path fill-rule="evenodd" clip-rule="evenodd" d="M26.876 48.185C30.528 49.519 34.7631 49.286 38.1581 47.389C33.056 45.789 28.404 42.786 24.844 38.797C28.706 42.551 33.943 44.859 39.319 45.177C38.613 41.438 36.246 38.045 32.978 36.094C30.443 34.579 27.499 33.94 24.656 33.14C21.813 32.341 18.913 31.293 16.842 29.188C16.167 33.018 16.665 37.076 18.423 40.544C20.181 44.014 23.223 46.851 26.876 48.185Z" fill="#4D7F1F"/>
<path fill-rule="evenodd" clip-rule="evenodd" d="M54.9018 46.769C54.9048 46.85 54.9138 46.94 54.9778 46.992C55.0628 47.062 55.1898 47.016 55.2898 46.968C57.6288 45.816 59.6898 44.107 61.2558 42.021C60.1578 44.629 58.0978 46.818 55.5598 48.068C56.2088 48.6 57.1358 48.63 57.9648 48.497C60.5458 48.082 62.8128 46.305 64.0728 44.015C65.3338 41.724 65.6368 38.975 65.1828 36.401C62.7688 37.376 60.3138 38.383 58.3118 40.047C56.3088 41.71 54.7948 44.167 54.9018 46.769Z" fill="#4D7F1F"/>
<path fill-rule="evenodd" clip-rule="evenodd" d="M23.7331 68.765C29.9531 72.887 38.3701 73.702 45.0471 70.372C37.9631 68.954 30.9041 66.358 25.5861 61.469C31.7731 65.498 39.0571 67.826 46.4331 68.13C45.7961 63.692 42.3141 60.088 38.3221 58.047C34.3301 56.007 29.8281 55.253 25.4261 54.403C21.0241 53.554 16.5311 52.537 12.7871 50.07C13.5441 57.493 17.5131 64.643 23.7331 68.765Z" fill="#4D7F1F"/>
<path fill-rule="evenodd" clip-rule="evenodd" d="M23.5406 75.762C20.8727 75.347 18.8947 75.561 17.5657 75.844C16.8557 75.994 16.1587 76.201 15.0247 76.318C13.3767 76.488 12.0037 76.344 11.0997 76.195C13.3997 76.148 15.1697 75.786 16.3727 75.459C17.8167 75.066 19.0767 74.551 21.1147 74.396C22.0807 74.322 22.8797 74.356 23.4037 74.396C22.7487 73.707 21.5826 72.656 19.8466 71.916C19.4116 71.73 18.1957 71.254 16.4017 71.092C14.0437 70.88 11.6467 71.33 9.46567 72.255C6.63067 73.459 4.04066 75.48 0.972656 75.747C3.46066 77.499 6.03066 79.245 8.95566 80.08C11.5277 80.814 14.3097 80.8 16.8747 80.04C19.4417 79.281 21.7826 77.778 23.5406 75.762Z" fill="#4D7F1F"/>
<path fill-rule="evenodd" clip-rule="evenodd" d="M45.2899 98.114C54.0559 95.229 57.93 87.697 58.705 86.106C54.726 85.117 50.5439 86.212 46.6719 87.555C42.7979 88.896 38.91 90.511 34.812 90.578C38.714 89.89 42.2539 87.936 45.8319 86.234C49.4099 84.532 53.2679 83.029 57.2169 83.348C53.5609 79.38 47.7949 77.479 42.4959 78.497C38.0699 79.347 34.2439 82.006 30.4669 84.465C26.6909 86.923 22.6059 89.313 18.1029 89.501C17.5559 89.524 18.4939 90.469 19.0509 90.981C23.8239 95.368 27.8489 96.758 27.8489 96.758C32.6029 98.399 38.3769 100.391 45.2899 98.114Z" fill="#4D7F1F"/>
<path fill-rule="evenodd" clip-rule="evenodd" d="M62.569 94.109C63.283 92.546 63.9849 90.931 65.3179 89.849C63.0089 89.518 60.683 90.646 59.019 92.28C57.355 93.914 56.2369 96.01 55.1539 98.076C54.0699 100.141 52.971 102.244 51.334 103.907C53.472 104.404 55.696 104.633 57.864 104.297C60.033 103.961 62.1469 103.029 63.6689 101.448C64.9639 100.106 65.7799 98.355 66.2369 96.547C66.6949 94.738 66.8119 92.862 66.8569 90.997C66.8599 90.867 66.806 90.696 66.832 90.57C65.847 91.23 65.1009 92.189 64.4559 93.186C63.8109 94.182 63.249 95.234 62.5359 96.182C61.8229 97.129 60.9329 97.986 59.8309 98.425C61.1209 97.291 61.855 95.671 62.569 94.109Z" fill="#4D7F1F"/>
<path fill-rule="evenodd" clip-rule="evenodd" d="M80.1858 39.635L79.4608 27.03L78.6458 39.646C70.3318 30.248 75.0868 24.2 79.4108 13.581C83.7338 24.195 88.4878 30.243 80.1858 39.635Z" fill="#4D7F1F"/>
</svg>
